<svg width="357" height="164" viewBox="0 0 357 164" fill="none" xmlns="http://www.w3.org/2000/svg">
<path d="M87.1 99.9C87.1 106.833 84.8333 112.167 80.3 115.9C76.1 119.433 70.5 121.2 63.5 121.2C54.3667 121.2 46.6333 117.567 40.3 110.3C34.3 103.367 31.3 95.2 31.3 85.8C31.3 76.1333 34.2667 67.1667 40.2 58.9C46.7333 49.7667 54.6667 45.2 64 45.2C67.1333 45.2 70.1667 46.0333 73.1 47.7C76.1 49.3 77.9333 50.1 78.6 50.1C79 50.1 79.5 49.8333 80.1 49.3C80.7667 48.7667 81.3333 48.5333 81.8 48.6C84.5333 48.7333 86.2333 50.8333 86.9 54.9C87.1667 56.1667 87.3 58.9667 87.3 63.3C87.3 65.3667 86.4333 67.1667 84.7 68.7C82.9667 70.1667 81.1 70.9 79.1 70.9C77.1667 70.9 75.4333 69.4 73.9 66.4C72.3667 63.4 70.6 61.9 68.6 61.9C64.6667 61.9 61.4333 63.4667 58.9 66.6C56.6333 69.4 55.5 72.5 55.5 75.9C55.5 85.1667 59 89.8 66 89.8C67.7333 89.8 70.4667 88.6667 74.2 86.4C78 84.0667 80.5 82.9 81.7 82.9C82.4333 82.9 83.0333 83.1667 83.5 83.7C85.9 86.5667 87.1 91.9667 87.1 99.9ZM90.982 95.2C90.982 87.9333 93.2487 81 97.782 74.4C102.849 67.1333 108.882 63.5 115.882 63.5C123.015 63.5 128.849 66.9 133.382 73.7C137.382 79.7667 139.382 86.5667 139.382 94.1C139.382 100.9 137.115 107.133 132.582 112.8C127.782 118.933 122.049 122 115.382 122C107.582 122 101.515 119.433 97.182 114.3C93.0487 109.5 90.982 103.133 90.982 95.2ZM120.882 91.9C120.882 88.5667 120.449 85.1667 119.582 81.7C118.382 76.7667 116.682 74.3 114.482 74.3C112.949 74.3 111.782 75.2333 110.982 77.1C110.315 78.5667 109.982 80.1667 109.982 81.9C109.982 84.9667 110.482 87.8333 111.482 90.5C112.815 94.0333 114.749 95.8 117.282 95.8C118.282 95.8 119.115 95.4333 119.782 94.7C120.515 93.9 120.882 92.9667 120.882 91.9ZM144.445 57.9C144.445 55.2333 146.378 52.7667 150.245 50.5C155.311 47.5667 160.278 46.1 165.145 46.1C167.211 46.1 168.045 47.4 167.645 50L164.845 69.4V70.8C164.845 74.8667 165.611 80.7667 167.145 88.5C168.545 95.5667 169.978 101.333 171.445 105.8C171.711 106.467 172.411 107.567 173.545 109.1C174.678 110.567 175.245 111.7 175.245 112.5C175.245 118.967 169.711 122.2 158.645 122.2C154.445 122.2 150.978 121.567 148.245 120.3C144.445 118.633 142.545 115.933 142.545 112.2C142.545 111.333 142.945 110.4 143.745 109.4C144.745 108.133 145.345 107.2 145.545 106.6C146.678 102.8 147.778 97.3 148.845 90.1C149.978 82.8333 150.545 77.2 150.545 73.2V72.7C150.478 72.6333 150.445 72.5333 150.445 72.4C150.445 67.1333 149.745 63.8667 148.345 62.6C147.478 62.0667 146.611 61.5333 145.745 61C144.878 60.4667 144.445 59.4333 144.445 57.9ZM181.177 79.9C179.711 79.1 178.944 78.6667 178.877 78.6C178.144 77.9333 177.777 76.9 177.777 75.5C177.777 72.9 179.711 70.4667 183.577 68.2C188.644 65.2 193.611 63.7 198.477 63.7C200.544 63.7 201.411 65 201.077 67.6L198.477 86.5C198.477 87.2333 198.511 87.9 198.577 88.5C199.377 92.3667 201.477 94.3 204.877 94.3C205.477 94.3 206.144 94.2667 206.877 94.2C208.344 93.9333 209.544 92.7667 210.477 90.7C211.211 89.0333 211.577 87.3667 211.577 85.7C211.577 82.7 210.977 80.5667 209.777 79.3C208.644 78.0333 208.077 76.7333 208.077 75.4C208.077 71.8 209.877 68.9333 213.477 66.8C216.544 64.9333 220.011 64 223.877 64C225.544 64 226.977 64.5333 228.177 65.6C229.377 66.6 229.977 67.9 229.977 69.5C229.977 72.4333 229.611 76.8333 228.877 82.7C228.144 88.5 227.777 92.8667 227.777 95.8C227.777 97.0667 228.577 98.5333 230.177 100.2C231.844 101.867 232.677 103.067 232.677 103.8C232.677 107.533 231.377 111.433 228.777 115.5C225.911 119.967 222.677 122.2 219.077 122.2C218.477 122.2 217.444 121.533 215.977 120.2C214.577 118.867 213.544 118.2 212.877 118.2C212.277 118.2 210.644 118.8 207.977 120C205.311 121.2 202.877 121.8 200.677 121.8C188.411 121.8 182.277 116.367 182.277 105.5C182.277 101.767 182.744 96.1333 183.677 88.6C183.477 83.6 182.644 80.7 181.177 79.9ZM239.597 79.5C237.864 78.0333 236.997 76.7 236.997 75.5C236.997 72.3 239.43 69.5667 244.297 67.3C248.364 65.4333 252.23 64.5 255.897 64.5C257.364 64.5 258.197 64.9667 258.397 65.9C258.397 65.7 258.397 66.7333 258.397 69L258.497 70.2C258.497 70.5333 258.63 70.8 258.897 71C259.164 71.2 259.397 71.2667 259.597 71.2C260.33 70.9333 261.864 69.5667 264.197 67.1C266.13 65.1667 268.53 64.2 271.397 64.2C274.464 64.2 276.864 65.7 278.597 68.7C280.064 71.2333 280.797 74.1 280.797 77.3C280.797 80.0333 279.864 82.4 277.997 84.4C276.13 86.4 273.83 87.4 271.097 87.4C269.097 87.4 267.597 86.8 266.597 85.6C265.997 84.8 265.364 83.2667 264.697 81C264.364 80.4 263.864 80.0667 263.197 80C261.997 80 261.064 81.5 260.397 84.5C259.997 86.5 259.797 88.5667 259.797 90.7C259.797 94.5 260.63 98.1 262.297 101.5C263.03 103.033 264.53 105.467 266.797 108.8C268.464 111.133 269.297 112.933 269.297 114.2C269.297 119.533 263.597 122.2 252.197 122.2C241.197 122.2 235.697 119.2 235.697 113.2C235.697 113.533 236.897 110.5 239.297 104.1C241.697 97.6333 242.897 92.7667 242.897 89.5C242.897 85.9667 242.83 83.8667 242.697 83.2C242.364 82.1333 241.33 80.9 239.597 79.5ZM285.677 77.7C285.677 73.3 287.343 69.8333 290.677 67.3C293.677 64.9 297.443 63.7 301.977 63.7C307.643 63.7 312.277 65.6333 315.877 69.5C318.81 72.5 320.277 75.1 320.277 77.3C320.277 79.9 318.377 81.2 314.577 81.2C312.71 81.2 310.977 79.8667 309.377 77.2C307.777 74.5333 306.377 73.2 305.177 73.2C304.377 73.2 303.61 73.5 302.877 74.1C302.21 74.6333 301.877 75.3 301.877 76.1C301.877 77.9 303.677 79.8667 307.277 82C312.277 84.9333 315.643 87.3333 317.377 89.2C321.043 93.1333 322.877 98.1333 322.877 104.2C322.877 109.2 320.81 113.433 316.677 116.9C312.81 120.167 308.377 121.8 303.377 121.8C289.777 121.8 282.977 115.467 282.977 102.8C282.977 99.8 284.043 98.3 286.177 98.3C286.777 98.3 287.577 98.5333 288.577 99C289.643 99.4 290.477 99.6 291.077 99.6C293.61 99.6 294.877 98.3333 294.877 95.8C294.877 94.0667 293.343 91.4667 290.277 88C287.21 84.4667 285.677 81.0333 285.677 77.7Z" fill="url(#paint0_linear_2_2)"/>
<defs>
<linearGradient id="paint0_linear_2_2" x1="178" y1="41" x2="178" y2="123" gradientUnits="userSpaceOnUse">
<stop stop-color="#CC02FF"/>
<stop offset="0.703125" stop-color="#9375FF"/>
<stop offset="1" stop-color="#53F5FF"/>
</linearGradient>
</defs>
</svg>
