<svg width="117" height="49" viewBox="0 0 117 49" fill="none" xmlns="http://www.w3.org/2000/svg">
<path d="M26.8395 31.615C26.8395 34.0417 26.0462 35.9083 24.4595 37.215C22.9895 38.4517 21.0295 39.07 18.5795 39.07C15.3828 39.07 12.6762 37.7983 10.4595 35.255C8.35949 32.8283 7.30949 29.97 7.30949 26.68C7.30949 23.2967 8.34783 20.1583 10.4245 17.265C12.7112 14.0683 15.4878 12.47 18.7545 12.47C19.8512 12.47 20.9128 12.7617 21.9395 13.345C22.9895 13.905 23.6312 14.185 23.8645 14.185C24.0045 14.185 24.1795 14.0917 24.3895 13.905C24.6228 13.7183 24.8212 13.6367 24.9845 13.66C25.9412 13.7067 26.5362 14.4417 26.7695 15.865C26.8628 16.3083 26.9095 17.2883 26.9095 18.805C26.9095 19.5283 26.6062 20.1583 25.9995 20.695C25.3928 21.2083 24.7395 21.465 24.0395 21.465C23.3628 21.465 22.7562 20.94 22.2195 19.89C21.6828 18.84 21.0645 18.315 20.3645 18.315C18.9878 18.315 17.8562 18.8633 16.9695 19.96C16.1762 20.94 15.7795 22.025 15.7795 23.215C15.7795 26.4583 17.0045 28.08 19.4545 28.08C20.0612 28.08 21.0178 27.6833 22.3245 26.89C23.6545 26.0733 24.5295 25.665 24.9495 25.665C25.2062 25.665 25.4162 25.7583 25.5795 25.945C26.4195 26.9483 26.8395 28.8383 26.8395 31.615ZM28.1982 29.97C28.1982 27.4267 28.9915 25 30.5782 22.69C32.3515 20.1467 34.4632 18.875 36.9132 18.875C39.4099 18.875 41.4515 20.065 43.0382 22.445C44.4382 24.5683 45.1382 26.9483 45.1382 29.585C45.1382 31.965 44.3449 34.1467 42.7582 36.13C41.0782 38.2767 39.0715 39.35 36.7382 39.35C34.0082 39.35 31.8849 38.4517 30.3682 36.655C28.9215 34.975 28.1982 32.7467 28.1982 29.97ZM38.6632 28.815C38.6632 27.6483 38.5115 26.4583 38.2082 25.245C37.7882 23.5183 37.1932 22.655 36.4232 22.655C35.8865 22.655 35.4782 22.9817 35.1982 23.635C34.9649 24.1483 34.8482 24.7083 34.8482 25.315C34.8482 26.3883 35.0232 27.3917 35.3732 28.325C35.8399 29.5617 36.5165 30.18 37.4032 30.18C37.7532 30.18 38.0449 30.0517 38.2782 29.795C38.5349 29.515 38.6632 29.1883 38.6632 28.815ZM46.9101 16.915C46.9101 15.9817 47.5867 15.1183 48.9401 14.325C50.7134 13.2983 52.4517 12.785 54.1551 12.785C54.8784 12.785 55.1701 13.24 55.0301 14.15L54.0501 20.94V21.43C54.0501 22.8533 54.3184 24.9183 54.8551 27.625C55.3451 30.0983 55.8467 32.1167 56.3601 33.68C56.4534 33.9133 56.6984 34.2983 57.0951 34.835C57.4917 35.3483 57.6901 35.745 57.6901 36.025C57.6901 38.2883 55.7534 39.42 51.8801 39.42C50.4101 39.42 49.1967 39.1983 48.2401 38.755C46.9101 38.1717 46.2451 37.2267 46.2451 35.92C46.2451 35.6167 46.3851 35.29 46.6651 34.94C47.0151 34.4967 47.2251 34.17 47.2951 33.96C47.6917 32.63 48.0767 30.705 48.4501 28.185C48.8467 25.6417 49.0451 23.67 49.0451 22.27V22.095C49.0217 22.0717 49.0101 22.0367 49.0101 21.99C49.0101 20.1467 48.7651 19.0033 48.2751 18.56C47.9717 18.3733 47.6684 18.1867 47.3651 18C47.0617 17.8133 46.9101 17.4517 46.9101 16.915ZM59.7666 24.615C59.2532 24.335 58.9849 24.1833 58.9616 24.16C58.7049 23.9267 58.5766 23.565 58.5766 23.075C58.5766 22.165 59.2532 21.3133 60.6066 20.52C62.3799 19.47 64.1182 18.945 65.8216 18.945C66.5449 18.945 66.8482 19.4 66.7316 20.31L65.8216 26.925C65.8216 27.1817 65.8332 27.415 65.8566 27.625C66.1366 28.9783 66.8716 29.655 68.0616 29.655C68.2716 29.655 68.5049 29.6433 68.7616 29.62C69.2749 29.5267 69.6949 29.1183 70.0216 28.395C70.2782 27.8117 70.4066 27.2283 70.4066 26.645C70.4066 25.595 70.1966 24.8483 69.7766 24.405C69.3799 23.9617 69.1816 23.5067 69.1816 23.04C69.1816 21.78 69.8116 20.7767 71.0716 20.03C72.1449 19.3767 73.3582 19.05 74.7116 19.05C75.2949 19.05 75.7966 19.2367 76.2166 19.61C76.6366 19.96 76.8466 20.415 76.8466 20.975C76.8466 22.0017 76.7182 23.5417 76.4616 25.595C76.2049 27.625 76.0766 29.1533 76.0766 30.18C76.0766 30.6233 76.3566 31.1367 76.9166 31.72C77.4999 32.3033 77.7916 32.7233 77.7916 32.98C77.7916 34.2867 77.3366 35.6517 76.4266 37.075C75.4232 38.6383 74.2916 39.42 73.0316 39.42C72.8216 39.42 72.4599 39.1867 71.9466 38.72C71.4566 38.2533 71.0949 38.02 70.8616 38.02C70.6516 38.02 70.0799 38.23 69.1466 38.65C68.2132 39.07 67.3616 39.28 66.5916 39.28C62.2982 39.28 60.1516 37.3783 60.1516 33.575C60.1516 32.2683 60.3149 30.2967 60.6416 27.66C60.5716 25.91 60.2799 24.895 59.7666 24.615ZM80.2134 24.475C79.6067 23.9617 79.3034 23.495 79.3034 23.075C79.3034 21.955 80.1551 20.9983 81.8584 20.205C83.2817 19.5517 84.6351 19.225 85.9184 19.225C86.4317 19.225 86.7234 19.3883 86.7934 19.715C86.7934 19.645 86.7934 20.0067 86.7934 20.8L86.8284 21.22C86.8284 21.3367 86.8751 21.43 86.9684 21.5C87.0617 21.57 87.1434 21.5933 87.2134 21.57C87.4701 21.4767 88.0067 20.9983 88.8234 20.135C89.5001 19.4583 90.3401 19.12 91.3434 19.12C92.4167 19.12 93.2567 19.645 93.8634 20.695C94.3767 21.5817 94.6334 22.585 94.6334 23.705C94.6334 24.6617 94.3067 25.49 93.6534 26.19C93.0001 26.89 92.1951 27.24 91.2384 27.24C90.5384 27.24 90.0134 27.03 89.6634 26.61C89.4534 26.33 89.2317 25.7933 88.9984 25C88.8817 24.79 88.7067 24.6733 88.4734 24.65C88.0534 24.65 87.7267 25.175 87.4934 26.225C87.3534 26.925 87.2834 27.6483 87.2834 28.395C87.2834 29.725 87.5751 30.985 88.1584 32.175C88.4151 32.7117 88.9401 33.5633 89.7334 34.73C90.3167 35.5467 90.6084 36.1767 90.6084 36.62C90.6084 38.4867 88.6134 39.42 84.6234 39.42C80.7734 39.42 78.8484 38.37 78.8484 36.27C78.8484 36.3867 79.2684 35.325 80.1084 33.085C80.9484 30.8217 81.3684 29.1183 81.3684 27.975C81.3684 26.7383 81.3451 26.0033 81.2984 25.77C81.1817 25.3967 80.8201 24.965 80.2134 24.475ZM96.3413 23.845C96.3413 22.305 96.9246 21.0917 98.0913 20.205C99.1413 19.365 100.46 18.945 102.046 18.945C104.03 18.945 105.651 19.6217 106.911 20.975C107.938 22.025 108.451 22.935 108.451 23.705C108.451 24.615 107.786 25.07 106.456 25.07C105.803 25.07 105.196 24.6033 104.636 23.67C104.076 22.7367 103.586 22.27 103.166 22.27C102.886 22.27 102.618 22.375 102.361 22.585C102.128 22.7717 102.011 23.005 102.011 23.285C102.011 23.915 102.641 24.6033 103.901 25.35C105.651 26.3767 106.83 27.2167 107.436 27.87C108.72 29.2467 109.361 30.9967 109.361 33.12C109.361 34.87 108.638 36.3517 107.191 37.565C105.838 38.7083 104.286 39.28 102.536 39.28C97.7763 39.28 95.3963 37.0633 95.3963 32.63C95.3963 31.58 95.7696 31.055 96.5163 31.055C96.7263 31.055 97.0063 31.1367 97.3563 31.3C97.7296 31.44 98.0213 31.51 98.2313 31.51C99.118 31.51 99.5613 31.0667 99.5613 30.18C99.5613 29.5733 99.0246 28.6633 97.9513 27.45C96.878 26.2133 96.3413 25.0117 96.3413 23.845Z" fill="url(#paint0_linear_2_2)"/>
<defs>
<linearGradient id="paint0_linear_2_2" x1="58.5" y1="11" x2="64.5" y2="46" gradientUnits="userSpaceOnUse">
<stop stop-color="#CC02FF"/>
<stop offset="0.729167" stop-color="#9375FF"/>
<stop offset="1" stop-color="#53F5FF"/>
</linearGradient>
</defs>
</svg>
