<svg width="117" height="49" viewBox="0 0 117 49" fill="none" xmlns="http://www.w3.org/2000/svg">
<path d="M29.5259 36.275C27.8925 36.275 26.4259 35.975 25.1259 35.375C23.8425 34.7583 22.8259 33.85 22.0759 32.65C21.3425 31.4333 20.9759 29.9417 20.9759 28.175C20.9759 26.7583 21.1925 25.4417 21.6259 24.225C22.0592 23.0083 22.6925 21.9417 23.5259 21.025C24.3759 20.1083 25.4175 19.3917 26.6509 18.875C27.9009 18.3583 29.3342 18.1 30.9509 18.1C31.7009 18.1 32.4759 18.1917 33.2759 18.375C34.0925 18.5417 34.8509 18.8083 35.5509 19.175C36.0009 19.4083 36.3009 19.7167 36.4509 20.1C36.6009 20.4667 36.6342 20.85 36.5509 21.25C36.4842 21.65 36.3259 22.0167 36.0759 22.35C35.8425 22.6667 35.5425 22.8917 35.1759 23.025C34.8259 23.1417 34.4425 23.1083 34.0259 22.925C33.3925 22.6083 32.8259 22.3917 32.3259 22.275C31.8259 22.1583 31.3342 22.1 30.8509 22.1C29.7342 22.1 28.8009 22.3667 28.0509 22.9C27.3175 23.4167 26.7592 24.125 26.3759 25.025C26.0092 25.9083 25.8259 26.9 25.8259 28C25.8259 29.4667 26.1675 30.55 26.8509 31.25C27.5342 31.9333 28.6092 32.275 30.0759 32.275C30.4925 32.275 30.9342 32.225 31.4009 32.125C31.8675 32.025 32.3342 31.8667 32.8009 31.65C33.2675 31.45 33.6842 31.4083 34.0509 31.525C34.4175 31.6417 34.7092 31.8583 34.9259 32.175C35.1592 32.475 35.2925 32.825 35.3259 33.225C35.3759 33.625 35.3009 34.0083 35.1009 34.375C34.9175 34.7417 34.5925 35.0333 34.1259 35.25C33.4425 35.6 32.6759 35.8583 31.8259 36.025C30.9925 36.1917 30.2259 36.275 29.5259 36.275ZM42.7839 36.275C40.7672 36.275 39.2089 35.75 38.1089 34.7C37.0089 33.65 36.4589 32.2583 36.4589 30.525C36.4589 29.3417 36.6589 28.3083 37.0589 27.425C37.4756 26.525 38.0256 25.7833 38.7089 25.2C39.4089 24.6 40.1922 24.1583 41.0589 23.875C41.9256 23.575 42.8172 23.425 43.7339 23.425C45.7339 23.425 47.2839 23.95 48.3839 25C49.5006 26.05 50.0589 27.4333 50.0589 29.15C50.0589 30.35 49.8506 31.4 49.4339 32.3C49.0339 33.1833 48.4839 33.925 47.7839 34.525C47.1006 35.1083 46.3256 35.55 45.4589 35.85C44.5922 36.1333 43.7006 36.275 42.7839 36.275ZM42.8589 33C43.7089 33 44.3756 32.625 44.8589 31.875C45.3422 31.125 45.5839 30.175 45.5839 29.025C45.5839 28.275 45.4089 27.7 45.0589 27.3C44.7256 26.9 44.2506 26.7 43.6339 26.7C42.8006 26.7 42.1422 27.075 41.6589 27.825C41.1756 28.5583 40.9339 29.5083 40.9339 30.675C40.9339 31.425 41.1006 32 41.4339 32.4C41.7839 32.8 42.2589 33 42.8589 33ZM55.9979 36.275C54.3979 36.275 53.2396 35.8333 52.5229 34.95C51.8229 34.0667 51.6063 32.7833 51.8729 31.1L53.5979 20.375C53.8313 18.8917 54.6813 18.15 56.1479 18.15C56.8479 18.15 57.3563 18.3833 57.6729 18.85C58.0063 19.3 58.1063 19.925 57.9729 20.725L56.3229 31.025C56.2396 31.5917 56.2979 32.025 56.4979 32.325C56.6979 32.6083 56.9979 32.75 57.3979 32.75C57.5313 32.75 57.6479 32.7417 57.7479 32.725C57.8479 32.6917 57.9563 32.675 58.0729 32.675C58.2896 32.675 58.4646 32.7583 58.5979 32.925C58.7313 33.0917 58.7979 33.3917 58.7979 33.825C58.7979 34.525 58.6646 35.05 58.3979 35.4C58.1313 35.7333 57.8313 35.9583 57.4979 36.075C57.3313 36.1417 57.1063 36.1917 56.8229 36.225C56.5396 36.2583 56.2646 36.275 55.9979 36.275ZM64.1894 36.275C63.3227 36.275 62.5727 36.0917 61.9394 35.725C61.3227 35.3583 60.881 34.7833 60.6144 34C60.3477 33.2167 60.3144 32.2083 60.5144 30.975L61.3894 25.525C61.606 24.1583 62.406 23.475 63.7894 23.475C64.5394 23.475 65.0894 23.6833 65.4394 24.1C65.7894 24.5167 65.906 25.1167 65.7894 25.9L64.9894 30.9C64.8894 31.55 64.931 32.0417 65.1144 32.375C65.3144 32.7083 65.681 32.875 66.2144 32.875C66.8644 32.875 67.406 32.6417 67.8394 32.175C68.2727 31.7083 68.556 31.0583 68.6894 30.225L69.4394 25.525C69.656 24.1583 70.456 23.475 71.8394 23.475C72.5894 23.475 73.131 23.6917 73.4644 24.125C73.8144 24.5417 73.931 25.1333 73.8144 25.9L72.5144 34.175C72.2977 35.5417 71.4977 36.225 70.1144 36.225C68.6644 36.225 68.0477 35.5083 68.2644 34.075C67.7977 34.825 67.2144 35.3833 66.5144 35.75C65.8144 36.1 65.0394 36.275 64.1894 36.275ZM77.004 36.225C76.2873 36.225 75.7623 36.0083 75.429 35.575C75.1123 35.1417 75.0207 34.5333 75.154 33.75L76.429 25.575C76.6457 24.175 77.479 23.475 78.929 23.475C79.6123 23.475 80.1123 23.6833 80.429 24.1C80.7623 24.5167 80.8707 25.0917 80.754 25.825C81.1207 25.0917 81.629 24.5167 82.279 24.1C82.9457 23.6667 83.6873 23.4417 84.504 23.425C85.0207 23.425 85.3957 23.5417 85.629 23.775C85.879 23.9917 86.004 24.3583 86.004 24.875C86.004 25.675 85.8207 26.2583 85.454 26.625C85.104 26.9917 84.5623 27.2083 83.829 27.275L82.904 27.375C82.0373 27.4583 81.4123 27.7083 81.029 28.125C80.6623 28.5417 80.404 29.1917 80.254 30.075L79.629 34.1C79.3957 35.5167 78.5207 36.225 77.004 36.225ZM90.9218 36.275C90.1551 36.275 89.4051 36.2083 88.6718 36.075C87.9384 35.9583 87.3051 35.7917 86.7718 35.575C86.2051 35.3583 85.8384 35.05 85.6718 34.65C85.5051 34.25 85.4884 33.8583 85.6218 33.475C85.7551 33.075 86.0051 32.7833 86.3718 32.6C86.7551 32.4 87.2051 32.4 87.7218 32.6C88.8051 33.05 89.8634 33.275 90.8968 33.275C91.5468 33.275 92.0218 33.175 92.3218 32.975C92.6218 32.775 92.7718 32.525 92.7718 32.225C92.7718 32.0083 92.6884 31.8333 92.5218 31.7C92.3718 31.5667 92.1134 31.475 91.7468 31.425L89.5218 31.05C88.4884 30.8833 87.6884 30.5167 87.1218 29.95C86.5718 29.3833 86.2968 28.6667 86.2968 27.8C86.2968 27.0333 86.5218 26.3167 86.9718 25.65C87.4384 24.9833 88.1218 24.45 89.0218 24.05C89.9384 23.6333 91.0801 23.425 92.4468 23.425C92.9468 23.425 93.4968 23.475 94.0968 23.575C94.6968 23.675 95.2551 23.8333 95.7718 24.05C96.3218 24.2667 96.6801 24.5667 96.8468 24.95C97.0134 25.3333 97.0218 25.7167 96.8718 26.1C96.7384 26.4667 96.4884 26.7417 96.1218 26.925C95.7551 27.1083 95.3051 27.1083 94.7718 26.925C94.3884 26.775 93.9634 26.65 93.4968 26.55C93.0468 26.45 92.6134 26.4 92.1968 26.4C91.5134 26.4 91.0134 26.5083 90.6968 26.725C90.3801 26.9417 90.2218 27.2083 90.2218 27.525C90.2218 27.7083 90.2801 27.8667 90.3968 28C90.5301 28.1333 90.7468 28.225 91.0468 28.275L93.2718 28.625C94.4218 28.825 95.2801 29.2083 95.8468 29.775C96.4134 30.3417 96.6968 31.05 96.6968 31.9C96.6968 33.3333 96.1634 34.425 95.0968 35.175C94.0468 35.9083 92.6551 36.275 90.9218 36.275Z" fill="url(#paint0_linear_2_2)"/>
<defs>
<linearGradient id="paint0_linear_2_2" x1="58.5" y1="11" x2="64.5" y2="46" gradientUnits="userSpaceOnUse">
<stop stop-color="#CC02FF"/>
<stop offset="0.729167" stop-color="#9375FF"/>
<stop offset="1" stop-color="#53F5FF"/>
</linearGradient>
</defs>
</svg>
